<?xml version="1.0" encoding="UTF-8" standalone="no"?>
<!DOCTYPE svg PUBLIC "-//W3C//DTD SVG 1.1//EN" "http://www.w3.org/Graphics/SVG/1.1/DTD/svg11.dtd">
<svg version="1.1" xmlns="http://www.w3.org/2000/svg" xmlns:xlink="http://www.w3.org/1999/xlink" preserveAspectRatio="xMidYMid meet" viewBox="0 0 1024 256" width="1024" height="256"><defs><path d="M84 112C88.42 112 92 115.58 92 120C92 124.8 92 131.2 92 136C92 140.42 88.42 144 84 144C67.2 144 24.8 144 8 144C3.58 144 0 140.42 0 136C0 131.2 0 124.8 0 120C0 115.58 3.58 112 8 112C24.8 112 67.2 112 84 112Z" id="b37KHNngb6"></path><path d="M248 112C252.42 112 256 115.58 256 120C256 124.8 256 131.2 256 136C256 140.42 252.42 144 248 144C231.2 144 188.8 144 172 144C167.58 144 164 140.42 164 136C164 131.2 164 124.8 164 120C164 115.58 167.58 112 172 112C188.8 112 231.2 112 248 112Z" id="a4l7o1ePWt"></path><path d="M148 112C152.42 112 156 115.58 156 120C156 124.8 156 131.2 156 136C156 140.42 152.42 144 148 144C138.4 144 117.6 144 108 144C103.58 144 100 140.42 100 136C100 131.2 100 124.8 100 120C100 115.58 103.58 112 108 112C117.6 112 138.4 112 148 112Z" id="a36xawE63"></path><path d="" id="c234LdoGYi"></path><path d="M162 119C163.1 119 164 119.9 164 121C164 123.8 164 130.2 164 133C164 134.1 163.1 135 162 135C160.8 135 159.2 135 158 135C156.9 135 156 134.1 156 133C156 130.2 156 123.8 156 121C156 119.9 156.9 119 158 119C159.2 119 160.8 119 162 119Z" id="a63vpOQRwz"></path><path d="M98 120C99.1 120 100 120.9 100 122C100 124.8 100 131.2 100 134C100 135.1 99.1 136 98 136C96.8 136 95.2 136 94 136C92.9 136 92 135.1 92 134C92 131.2 92 124.8 92 122C92 120.9 92.9 120 94 120C95.2 120 96.8 120 98 120Z" id="a2cmPofIwQ"></path><path d="M186 124C187.1 124 188 124.9 188 126C188 129.6 188 138.4 188 142C188 143.1 187.1 144 186 144C184.8 144 183.2 144 182 144C180.9 144 180 143.1 180 142C180 138.4 180 129.6 180 126C180 124.9 180.9 124 182 124C183.2 124 184.8 124 186 124Z" id="bIuhfulei"></path><path d="M204 124C205.1 124 206 124.9 206 126C206 129.6 206 138.4 206 142C206 143.1 205.1 144 204 144C202.8 144 201.2 144 200 144C198.9 144 198 143.1 198 142C198 138.4 198 129.6 198 126C198 124.9 198.9 124 200 124C201.2 124 202.8 124 204 124Z" id="a19jkylBfK"></path><path d="M222 124C223.1 124 224 124.9 224 126C224 129.6 224 138.4 224 142C224 143.1 223.1 144 222 144C220.8 144 219.2 144 218 144C216.9 144 216 143.1 216 142C216 138.4 216 129.6 216 126C216 124.9 216.9 124 218 124C219.2 124 220.8 124 222 124Z" id="gp9N2jFrd"></path><path d="M240 124C241.1 124 242 124.9 242 126C242 129.6 242 138.4 242 142C242 143.1 241.1 144 240 144C238.8 144 237.2 144 236 144C234.9 144 234 143.1 234 142C234 138.4 234 129.6 234 126C234 124.9 234.9 124 236 124C237.2 124 238.8 124 240 124Z" id="d6aqMOsWc"></path><path d="M256 130C256 131.11 255.1 132 254 132C236 132 184 132 166 132C164.9 132 164 131.1 164 130C164 128.8 164 127.2 164 126C164 124.9 164.9 124 166 124C184 124 236 124 254 124C255.1 124 256 124.9 256 126C256 127.2 256 128.8 256 130Z" id="a4q56nIVKS"></path><path d="M92 130C92 131.11 91.1 132 90 132C72 132 20 132 2 132C0.9 132 0 131.1 0 130C0 128.8 0 127.2 0 126C0 124.9 0.9 124 2 124C20 124 72 124 90 124C91.1 124 92 124.9 92 126C92 127.2 92 128.8 92 130Z" id="ckwwePOyo"></path><path d="M76 124C77.1 124 78 124.9 78 126C78 129.6 78 138.4 78 142C78 143.1 77.1 144 76 144C74.8 144 73.2 144 72 144C70.9 144 70 143.1 70 142C70 138.4 70 129.6 70 126C70 124.9 70.9 124 72 124C73.2 124 74.8 124 76 124Z" id="b3Cz4xCo6v"></path><path d="M58 124C59.1 124 60 124.9 60 126C60 129.6 60 138.4 60 142C60 143.1 59.1 144 58 144C56.8 144 55.2 144 54 144C52.9 144 52 143.1 52 142C52 138.4 52 129.6 52 126C52 124.9 52.9 124 54 124C55.2 124 56.8 124 58 124Z" id="h3WNiYa8Wv"></path><path d="M40 124C41.1 124 42 124.9 42 126C42 129.6 42 138.4 42 142C42 143.1 41.1 144 40 144C38.8 144 37.2 144 36 144C34.89 144 34 143.1 34 142C34 138.4 34 129.6 34 126C34 124.9 34.89 124 36 124C37.2 124 38.8 124 40 124Z" id="aXdOTQDCD"></path><path d="M22 124C23.1 124 24 124.9 24 126C24 129.6 24 138.4 24 142C24 143.1 23.1 144 22 144C20.8 144 19.2 144 18 144C16.9 144 16 143.1 16 142C16 138.4 16 129.6 16 126C16 124.9 16.9 124 18 124C19.2 124 20.8 124 22 124Z" id="dJM3In0yg"></path><path d="M138 144C139.1 144 140 144.9 140 146C140 147.2 140 148.8 140 150C140 151.1 139.1 152 138 152C133.6 152 122.4 152 118 152C116.9 152 116 151.1 116 150C116 148.8 116 147.2 116 146C116 144.9 116.9 144 118 144C122.4 144 133.6 144 138 144Z" id="e1b4KRzQVt"></path><path d="" id="b3rZYmPQdt"></path><path d="M131 160C131.55 160 132 160.45 132 161C132 161.6 132 162.4 132 163C132 163.55 131.55 164 131 164C129.6 164 126.4 164 125 164C124.45 164 124 163.55 124 163C124 162.4 124 161.6 124 161C124 160.45 124.45 160 125 160C126.4 160 129.6 160 131 160Z" id="k45m6woLZj"></path><path d="M130.45 152.31L131.97 152.48L133.45 152.71L134.9 153.01L136.31 153.36L137.68 153.77L139 154.23L140.27 154.75L141.49 155.31L142.65 155.93L143.76 156.59L144.8 157.29L145.78 158.04L146.69 158.83L147.52 159.65L147.99 160.18L106.65 160.18L107.12 159.65L107.95 158.83L108.86 158.04L109.84 157.29L110.88 156.59L111.99 155.93L113.15 155.31L114.37 154.75L115.64 154.23L116.96 153.77L118.33 153.36L119.74 153.01L121.19 152.71L122.67 152.48L124.19 152.31L125.74 152.21L127.32 152.18L128.9 152.21L130.45 152.31Z" id="c1hNwiV1JK"></path><path d="M156 120C156 124.42 152.42 128 148 128C143.58 128 140 124.42 140 120C140 115.58 143.58 112 148 112C152.42 112 156 115.58 156 120Z" id="b3qF6bAHl"></path><path d="" id="j3Daok4V2N"></path><path d="M103 141.83L155.5 126.5" id="c2MvaOrlwN"></path></defs><g><g><g><use xlink:href="#b37KHNngb6" opacity="1" fill="#ffffff" fill-opacity="0"></use><g><use xlink:href="#b37KHNngb6" opacity="1" fill-opacity="0" stroke="#41ead4" stroke-width="2" stroke-opacity="1"></use></g></g><g><use xlink:href="#a4l7o1ePWt" opacity="1" fill="#ffffff" fill-opacity="0"></use><g><use xlink:href="#a4l7o1ePWt" opacity="1" fill-opacity="0" stroke="#41ead4" stroke-width="2" stroke-opacity="1"></use></g></g><g><use xlink:href="#a36xawE63" opacity="1" fill="#585c30" fill-opacity="0"></use><g><use xlink:href="#a36xawE63" opacity="1" fill-opacity="0" stroke="#41ead4" stroke-width="2" stroke-opacity="1"></use></g></g><g><g><use xlink:href="#c234LdoGYi" opacity="1" fill-opacity="0" stroke="#41ead4" stroke-width="2" stroke-opacity="1"></use></g></g><g><use xlink:href="#a63vpOQRwz" opacity="1" fill="#585c30" fill-opacity="0"></use><g><use xlink:href="#a63vpOQRwz" opacity="1" fill-opacity="0" stroke="#41ead4" stroke-width="2" stroke-opacity="1"></use></g></g><g><use xlink:href="#a2cmPofIwQ" opacity="1" fill="#585c30" fill-opacity="0"></use><g><use xlink:href="#a2cmPofIwQ" opacity="1" fill-opacity="0" stroke="#41ead4" stroke-width="2" stroke-opacity="1"></use></g></g><g><use xlink:href="#bIuhfulei" opacity="1" fill="#585c30" fill-opacity="0"></use><g><use xlink:href="#bIuhfulei" opacity="1" fill-opacity="0" stroke="#41ead4" stroke-width="2" stroke-opacity="1"></use></g></g><g><use xlink:href="#a19jkylBfK" opacity="1" fill="#585c30" fill-opacity="0"></use><g><use xlink:href="#a19jkylBfK" opacity="1" fill-opacity="0" stroke="#41ead4" stroke-width="2" stroke-opacity="1"></use></g></g><g><use xlink:href="#gp9N2jFrd" opacity="1" fill="#585c30" fill-opacity="0"></use><g><use xlink:href="#gp9N2jFrd" opacity="1" fill-opacity="0" stroke="#41ead4" stroke-width="2" stroke-opacity="1"></use></g></g><g><use xlink:href="#d6aqMOsWc" opacity="1" fill="#585c30" fill-opacity="0"></use><g><use xlink:href="#d6aqMOsWc" opacity="1" fill-opacity="0" stroke="#41ead4" stroke-width="2" stroke-opacity="1"></use></g></g><g><use xlink:href="#a4q56nIVKS" opacity="1" fill="#585c30" fill-opacity="0"></use><g><use xlink:href="#a4q56nIVKS" opacity="1" fill-opacity="0" stroke="#41ead4" stroke-width="2" stroke-opacity="1"></use></g></g><g><use xlink:href="#ckwwePOyo" opacity="1" fill="#585c30" fill-opacity="0"></use><g><use xlink:href="#ckwwePOyo" opacity="1" fill-opacity="0" stroke="#41ead4" stroke-width="2" stroke-opacity="1"></use></g></g><g><use xlink:href="#b3Cz4xCo6v" opacity="1" fill="#585c30" fill-opacity="0"></use><g><use xlink:href="#b3Cz4xCo6v" opacity="1" fill-opacity="0" stroke="#41ead4" stroke-width="2" stroke-opacity="1"></use></g></g><g><use xlink:href="#h3WNiYa8Wv" opacity="1" fill="#585c30" fill-opacity="0"></use><g><use xlink:href="#h3WNiYa8Wv" opacity="1" fill-opacity="0" stroke="#41ead4" stroke-width="2" stroke-opacity="1"></use></g></g><g><use xlink:href="#aXdOTQDCD" opacity="1" fill="#585c30" fill-opacity="0"></use><g><use xlink:href="#aXdOTQDCD" opacity="1" fill-opacity="0" stroke="#41ead4" stroke-width="2" stroke-opacity="1"></use></g></g><g><use xlink:href="#dJM3In0yg" opacity="1" fill="#585c30" fill-opacity="0"></use><g><use xlink:href="#dJM3In0yg" opacity="1" fill-opacity="0" stroke="#41ead4" stroke-width="2" stroke-opacity="1"></use></g></g><g><use xlink:href="#e1b4KRzQVt" opacity="1" fill="#585c30" fill-opacity="0"></use><g><use xlink:href="#e1b4KRzQVt" opacity="1" fill-opacity="0" stroke="#41ead4" stroke-width="2" stroke-opacity="1"></use></g></g><g><g><use xlink:href="#b3rZYmPQdt" opacity="1" fill-opacity="0" stroke="#41ead4" stroke-width="2" stroke-opacity="1"></use></g></g><g><use xlink:href="#k45m6woLZj" opacity="1" fill="#585c30" fill-opacity="0"></use><g><use xlink:href="#k45m6woLZj" opacity="1" fill-opacity="0" stroke="#41ead4" stroke-width="2" stroke-opacity="1"></use></g></g><g><use xlink:href="#c1hNwiV1JK" opacity="1" fill="#ffffff" fill-opacity="0"></use><g><use xlink:href="#c1hNwiV1JK" opacity="1" fill-opacity="0" stroke="#41ead4" stroke-width="2" stroke-opacity="1"></use></g></g><g><use xlink:href="#b3qF6bAHl" opacity="1" fill="#ffffff" fill-opacity="0"></use><g><use xlink:href="#b3qF6bAHl" opacity="1" fill-opacity="0" stroke="#41ead4" stroke-width="2" stroke-opacity="1"></use></g></g><g><g><use xlink:href="#j3Daok4V2N" opacity="1" fill-opacity="0" stroke="#f898b7" stroke-width="2" stroke-opacity="1"></use></g></g><g><g><use xlink:href="#c2MvaOrlwN" opacity="1" fill-opacity="0" stroke="#41ead4" stroke-width="2" stroke-opacity="1"></use></g></g></g></g></svg>