<?xml version="1.0" encoding="UTF-8" standalone="no"?>
<!DOCTYPE svg PUBLIC "-//W3C//DTD SVG 1.1//EN" "http://www.w3.org/Graphics/SVG/1.1/DTD/svg11.dtd">
<svg version="1.1" xmlns="http://www.w3.org/2000/svg" xmlns:xlink="http://www.w3.org/1999/xlink" preserveAspectRatio="xMidYMid meet" viewBox="0 0 256 32" width="256" height="32"><defs><path d="M32 16C32 24.83 24.83 32 16 32C7.17 32 0 24.83 0 16C0 7.17 7.17 0 16 0C24.83 0 32 7.17 32 16Z" id="b23lZTMAWO"></path><clipPath id="clipaWGSdFydc"><use xlink:href="#b23lZTMAWO" opacity="1"></use></clipPath><path d="M24 16C24 20.42 20.42 24 16 24C11.58 24 8 20.42 8 16C8 11.58 11.58 8 16 8C20.42 8 24 11.58 24 16Z" id="a1phpKF4SL"></path><clipPath id="clipe4hsgxybtp"><use xlink:href="#a1phpKF4SL" opacity="1"></use></clipPath><path d="M16 31L16 23.82" id="fxpv6pgNT"></path><path d="M64 16C64 24.83 56.83 32 48 32C39.17 32 32 24.83 32 16C32 7.17 39.17 0 48 0C56.83 0 64 7.17 64 16Z" id="b60aWEFKwg"></path><clipPath id="clipa15W4vqo6s"><use xlink:href="#b60aWEFKwg" opacity="1"></use></clipPath><path d="M56 16C56 20.42 52.42 24 48 24C43.58 24 40 20.42 40 16C40 11.58 43.58 8 48 8C52.42 8 56 11.58 56 16Z" id="a29vJswb6V"></path><clipPath id="clipi8RhaFhv0"><use xlink:href="#a29vJswb6V" opacity="1"></use></clipPath><path d="M58.61 26.61L48 16" id="a2lBw4jPuy"></path><path d="M96 16C96 24.83 88.83 32 80 32C71.17 32 64 24.83 64 16C64 7.17 71.17 0 80 0C88.83 0 96 7.17 96 16Z" id="c9Ltn7jR4"></path><clipPath id="clipaFvgFVagy"><use xlink:href="#c9Ltn7jR4" opacity="1"></use></clipPath><path d="M88 16C88 20.42 84.42 24 80 24C75.58 24 72 20.42 72 16C72 11.58 75.58 8 80 8C84.42 8 88 11.58 88 16Z" id="d3wgurt4dz"></path><clipPath id="clipbKPsW75Iq"><use xlink:href="#d3wgurt4dz" opacity="1"></use></clipPath><path d="M95.32 16L80.32 16" id="d39qYVQ0XJ"></path><path d="M128 16C128 24.83 120.83 32 112 32C103.17 32 96 24.83 96 16C96 7.17 103.17 0 112 0C120.83 0 128 7.17 128 16Z" id="c1tU19ui2X"></path><clipPath id="clipjWZAxYL40"><use xlink:href="#c1tU19ui2X" opacity="1"></use></clipPath><path d="M120 16C120 20.42 116.42 24 112 24C107.58 24 104 20.42 104 16C104 11.58 107.58 8 112 8C116.42 8 120 11.58 120 16Z" id="f26oPhJAqe"></path><clipPath id="clipjk82ynwT0"><use xlink:href="#f26oPhJAqe" opacity="1"></use></clipPath><path d="M123 5.39L112.4 16" id="a2BebQ5r00"></path><path d="M160 16C160 24.83 152.83 32 144 32C135.17 32 128 24.83 128 16C128 7.17 135.17 0 144 0C152.83 0 160 7.17 160 16Z" id="ci1wMubg"></path><clipPath id="clipcEIy7ciHd"><use xlink:href="#ci1wMubg" opacity="1"></use></clipPath><path d="M152 16C152 20.42 148.42 24 144 24C139.58 24 136 20.42 136 16C136 11.58 139.58 8 144 8C148.42 8 152 11.58 152 16Z" id="a4SOuoOxMm"></path><clipPath id="clipaqgOfjvU"><use xlink:href="#a4SOuoOxMm" opacity="1"></use></clipPath><path d="M144.13 1L144.13 16" id="g2G8pSzY2D"></path><path d="M192 16C192 24.83 184.83 32 176 32C167.17 32 160 24.83 160 16C160 7.17 167.17 0 176 0C184.83 0 192 7.17 192 16Z" id="b72MzNFOM"></path><clipPath id="clipa1Ew1nK5vj"><use xlink:href="#b72MzNFOM" opacity="1"></use></clipPath><path d="M184 16C184 20.42 180.42 24 176 24C171.58 24 168 20.42 168 16C168 11.58 171.58 8 176 8C180.42 8 184 11.58 184 16Z" id="ayRt07UZE"></path><clipPath id="clipd14fSMoGZ5"><use xlink:href="#ayRt07UZE" opacity="1"></use></clipPath><path d="M164.89 5.39L175.5 16" id="a1coZ7vLpQ"></path><path d="M224 16C224 24.83 216.83 32 208 32C199.17 32 192 24.83 192 16C192 7.17 199.17 0 208 0C216.83 0 224 7.17 224 16Z" id="aOMCrRYab"></path><clipPath id="clipbdzTtv5s2"><use xlink:href="#aOMCrRYab" opacity="1"></use></clipPath><path d="M216 16C216 20.42 212.42 24 208 24C203.58 24 200 20.42 200 16C200 11.58 203.58 8 208 8C212.42 8 216 11.58 216 16Z" id="crzBXKc7m"></path><clipPath id="clipa6r0oKuQXs"><use xlink:href="#crzBXKc7m" opacity="1"></use></clipPath><path d="M193.44 16L208.44 16" id="d1DEeVHzxl"></path><path d="M256 16C256 24.83 248.83 32 240 32C231.17 32 224 24.83 224 16C224 7.17 231.17 0 240 0C248.83 0 256 7.17 256 16Z" id="a5pTNuAMBg"></path><clipPath id="clipa2OzNNPhnL"><use xlink:href="#a5pTNuAMBg" opacity="1"></use></clipPath><path d="M248 16C248 20.42 244.42 24 240 24C235.58 24 232 20.42 232 16C232 11.58 235.58 8 240 8C244.42 8 248 11.58 248 16Z" id="b2ru1LDxym"></path><clipPath id="clipd3l9WkRSoP"><use xlink:href="#b2ru1LDxym" opacity="1"></use></clipPath><path d="M229.39 26.61L240 16" id="b1aWAKguHD"></path></defs><g><g><g><g><use xlink:href="#b23lZTMAWO" opacity="1" fill="#955050" fill-opacity="0"></use><g clip-path="url(#clipaWGSdFydc)"><use xlink:href="#b23lZTMAWO" opacity="1" fill-opacity="0" stroke="#41ead4" stroke-width="4" stroke-opacity="1"></use></g></g><g><use xlink:href="#a1phpKF4SL" opacity="1" fill="#41ead4" fill-opacity="1"></use><g clip-path="url(#clipe4hsgxybtp)"><use xlink:href="#a1phpKF4SL" opacity="1" fill-opacity="0" stroke="#41ead4" stroke-width="4" stroke-opacity="1"></use></g></g><g><g><use xlink:href="#fxpv6pgNT" opacity="1" fill-opacity="0" stroke="#41ead4" stroke-width="2" stroke-opacity="1"></use></g></g></g><g><g><use xlink:href="#b60aWEFKwg" opacity="1" fill="#955050" fill-opacity="0"></use><g clip-path="url(#clipa15W4vqo6s)"><use xlink:href="#b60aWEFKwg" opacity="1" fill-opacity="0" stroke="#41ead4" stroke-width="4" stroke-opacity="1"></use></g></g><g><use xlink:href="#a29vJswb6V" opacity="1" fill="#41ead4" fill-opacity="1"></use><g clip-path="url(#clipi8RhaFhv0)"><use xlink:href="#a29vJswb6V" opacity="1" fill-opacity="0" stroke="#41ead4" stroke-width="4" stroke-opacity="1"></use></g></g><g><g><use xlink:href="#a2lBw4jPuy" opacity="1" fill-opacity="0" stroke="#41ead4" stroke-width="2" stroke-opacity="1"></use></g></g></g><g><g><use xlink:href="#c9Ltn7jR4" opacity="1" fill="#955050" fill-opacity="0"></use><g clip-path="url(#clipaFvgFVagy)"><use xlink:href="#c9Ltn7jR4" opacity="1" fill-opacity="0" stroke="#41ead4" stroke-width="4" stroke-opacity="1"></use></g></g><g><use xlink:href="#d3wgurt4dz" opacity="1" fill="#41ead4" fill-opacity="1"></use><g clip-path="url(#clipbKPsW75Iq)"><use xlink:href="#d3wgurt4dz" opacity="1" fill-opacity="0" stroke="#41ead4" stroke-width="4" stroke-opacity="1"></use></g></g><g><g><use xlink:href="#d39qYVQ0XJ" opacity="1" fill-opacity="0" stroke="#41ead4" stroke-width="2" stroke-opacity="1"></use></g></g></g><g><g><use xlink:href="#c1tU19ui2X" opacity="1" fill="#955050" fill-opacity="0"></use><g clip-path="url(#clipjWZAxYL40)"><use xlink:href="#c1tU19ui2X" opacity="1" fill-opacity="0" stroke="#41ead4" stroke-width="4" stroke-opacity="1"></use></g></g><g><use xlink:href="#f26oPhJAqe" opacity="1" fill="#41ead4" fill-opacity="1"></use><g clip-path="url(#clipjk82ynwT0)"><use xlink:href="#f26oPhJAqe" opacity="1" fill-opacity="0" stroke="#41ead4" stroke-width="4" stroke-opacity="1"></use></g></g><g><g><use xlink:href="#a2BebQ5r00" opacity="1" fill-opacity="0" stroke="#41ead4" stroke-width="2" stroke-opacity="1"></use></g></g></g><g><g><use xlink:href="#ci1wMubg" opacity="1" fill="#955050" fill-opacity="0"></use><g clip-path="url(#clipcEIy7ciHd)"><use xlink:href="#ci1wMubg" opacity="1" fill-opacity="0" stroke="#41ead4" stroke-width="4" stroke-opacity="1"></use></g></g><g><use xlink:href="#a4SOuoOxMm" opacity="1" fill="#41ead4" fill-opacity="1"></use><g clip-path="url(#clipaqgOfjvU)"><use xlink:href="#a4SOuoOxMm" opacity="1" fill-opacity="0" stroke="#41ead4" stroke-width="4" stroke-opacity="1"></use></g></g><g><g><use xlink:href="#g2G8pSzY2D" opacity="1" fill-opacity="0" stroke="#41ead4" stroke-width="2" stroke-opacity="1"></use></g></g></g><g><g><use xlink:href="#b72MzNFOM" opacity="1" fill="#955050" fill-opacity="0"></use><g clip-path="url(#clipa1Ew1nK5vj)"><use xlink:href="#b72MzNFOM" opacity="1" fill-opacity="0" stroke="#41ead4" stroke-width="4" stroke-opacity="1"></use></g></g><g><use xlink:href="#ayRt07UZE" opacity="1" fill="#41ead4" fill-opacity="1"></use><g clip-path="url(#clipd14fSMoGZ5)"><use xlink:href="#ayRt07UZE" opacity="1" fill-opacity="0" stroke="#41ead4" stroke-width="4" stroke-opacity="1"></use></g></g><g><g><use xlink:href="#a1coZ7vLpQ" opacity="1" fill-opacity="0" stroke="#41ead4" stroke-width="2" stroke-opacity="1"></use></g></g></g><g><g><use xlink:href="#aOMCrRYab" opacity="1" fill="#955050" fill-opacity="0"></use><g clip-path="url(#clipbdzTtv5s2)"><use xlink:href="#aOMCrRYab" opacity="1" fill-opacity="0" stroke="#41ead4" stroke-width="4" stroke-opacity="1"></use></g></g><g><use xlink:href="#crzBXKc7m" opacity="1" fill="#41ead4" fill-opacity="1"></use><g clip-path="url(#clipa6r0oKuQXs)"><use xlink:href="#crzBXKc7m" opacity="1" fill-opacity="0" stroke="#41ead4" stroke-width="4" stroke-opacity="1"></use></g></g><g><g><use xlink:href="#d1DEeVHzxl" opacity="1" fill-opacity="0" stroke="#41ead4" stroke-width="2" stroke-opacity="1"></use></g></g></g><g><g><use xlink:href="#a5pTNuAMBg" opacity="1" fill="#955050" fill-opacity="0"></use><g clip-path="url(#clipa2OzNNPhnL)"><use xlink:href="#a5pTNuAMBg" opacity="1" fill-opacity="0" stroke="#41ead4" stroke-width="4" stroke-opacity="1"></use></g></g><g><use xlink:href="#b2ru1LDxym" opacity="1" fill="#41ead4" fill-opacity="1"></use><g clip-path="url(#clipd3l9WkRSoP)"><use xlink:href="#b2ru1LDxym" opacity="1" fill-opacity="0" stroke="#41ead4" stroke-width="4" stroke-opacity="1"></use></g></g><g><g><use xlink:href="#b1aWAKguHD" opacity="1" fill-opacity="0" stroke="#41ead4" stroke-width="2" stroke-opacity="1"></use></g></g></g></g></g></svg>